<svg xmlns="http://www.w3.org/2000/svg" width="1680" height="805" viewBox="0 0 1680 805"><rect width="1680" height="805" fill="#101923"/><g font-family="sans-serif"><text x="35" y="43" font-size="28" fill="#dbeafe">M03 · CAMP CLEARING / BOSS CORNER BLOCKOUT</text><text x="35" y="77" font-size="18" fill="#fbbf24">FIRST-PASS PLACEHOLDER — replace with scaled rooms, gates, sightlines and rail connections.</text><rect x="35" y="230" width="200" height="130" rx="8" fill="#163333" stroke="#8499b1"/><text x="47" y="257" font-size="20" fill="#dbeafe">R01 · Dock</text><text x="47" y="284" font-size="15" fill="#dbeafe">Safe deployment</text><rect x="270" y="230" width="200" height="130" rx="8" fill="#542c32" stroke="#8499b1"/><text x="282" y="257" font-size="20" fill="#dbeafe">R02 · Checkpoint</text><text x="282" y="284" font-size="15" fill="#dbeafe">E005 / freight cover</text><rect x="505" y="230" width="200" height="130" rx="8" fill="#542c32" stroke="#8499b1"/><text x="517" y="257" font-size="20" fill="#dbeafe">R03 · Freight</text><text x="517" y="284" font-size="15" fill="#dbeafe">E005 + E006</text><rect x="740" y="230" width="220" height="130" rx="8" fill="#542c32" stroke="#8499b1"/><text x="752" y="257" font-size="20" fill="#dbeafe">R04 · Control hall</text><text x="752" y="284" font-size="15" fill="#dbeafe">E005 + E006 + E007</text><path d="M235 300H270" fill="none" stroke="#dbeafe" stroke-width="3"/><path d="M470 300H505" fill="none" stroke="#dbeafe" stroke-width="3"/><path d="M705 300H740" fill="none" stroke="#dbeafe" stroke-width="3"/><path d="M960 300H1000" fill="none" stroke="#dbeafe" stroke-width="3"/><rect x="1000" y="170" width="410" height="300" rx="8" fill="#542c32" stroke="#8499b1"/><text x="1012" y="197" font-size="20" fill="#dbeafe">R05 · Gang-leader arena</text><text x="1012" y="224" font-size="15" fill="#dbeafe">Clear retreat path / no adds in this draft</text><path d="M1015 455H1395" fill="none" stroke="#dbeafe" stroke-width="3"/><rect x="1220" y="365" width="175" height="80" rx="8" fill="#574622" stroke="#8499b1"/><text x="1232" y="392" font-size="20" fill="#dbeafe">Healing cover</text><text x="1232" y="419" font-size="15" fill="#dbeafe">BOTTOM-RIGHT</text><text x="1030" y="335" font-size="17" fill="#dbeafe">Player fights from left</text><path d="M1140 365H1205V405" fill="none" stroke="#fbbf24" stroke-width="3" stroke-dasharray="6 5"/><text x="1440" y="295" font-size="24" fill="#fbbf24">RAM</text><text x="1440" y="323" font-size="17" fill="#dbeafe">Off-screen right</text><text x="1440" y="350" font-size="16" fill="#dbeafe">Other side of cover</text><path d="M1580 405H1415" fill="none" stroke="#fbbf24" stroke-width="3" stroke-dasharray="6 5"/><path d="M1430 393l-15 12 15 12" fill="none" stroke="#fbbf24" stroke-width="3"/><rect x="740" y="520" width="220" height="120" rx="8" fill="#574622" stroke="#8499b1"/><text x="752" y="547" font-size="20" fill="#dbeafe">R06 · Distribution</text><text x="752" y="574" font-size="15" fill="#dbeafe">Safe rail / power terminal</text><rect x="1000" y="520" width="410" height="120" rx="8" fill="#163333" stroke="#8499b1"/><text x="1012" y="547" font-size="20" fill="#dbeafe">R07 · Return dock</text><text x="1012" y="574" font-size="15" fill="#dbeafe">Two upright Coffins / safe extraction</text><path d="M1000 440H975V495H850V520" fill="none" stroke="#dbeafe" stroke-width="3"/><path d="M960 590H1000" fill="none" stroke="#dbeafe" stroke-width="3"/><text x="35" y="696" font-size="18" fill="#dbeafe">Review the shared route, room-clear gates, ordinary flank/counterplay space and local pursuit limits.</text><text x="35" y="733" font-size="18" fill="#dbeafe">Keep RAM's approach outside the gameplay frame until the authored breach; do not confuse this sheet with camera framing.</text><text x="35" y="770" font-size="18" fill="#dbeafe">Preserve functioning automation at R06; show seized goods, toll desks, bedding and repurposed electrical controls.</text></g></svg>
