<svg xmlns="http://www.w3.org/2000/svg" width="1440" height="720" viewBox="0 0 1440 720" role="img"><title>RELAY RETURNS TO THE HUB storyboard handoff</title><rect width="1440" height="720" fill="#101923"/><g font-family="sans-serif"><text x="30" y="45" font-size="28" fill="#dbeafe">CS005 · RELAY RETURNS TO THE HUB</text><text x="30" y="80" font-size="18" fill="#fbbf24">STORYBOARD PLACEHOLDER — replace with reviewed animated-comic panels using current Character references.</text><rect x="30" y="145" width="440" height="340" rx="7" fill="#233248" stroke="#8499b1" stroke-width="2"/><text x="50" y="180" font-size="20" fill="#dbeafe">1 · Fourth Coffin docks</text><rect x="52" y="252" width="75" height="160" rx="7" fill="#45545e" stroke="#8499b1" stroke-width="2"/><rect x="157" y="252" width="75" height="160" rx="7" fill="#45545e" stroke="#8499b1" stroke-width="2"/><rect x="262" y="252" width="75" height="160" rx="7" fill="#45545e" stroke="#8499b1" stroke-width="2"/><rect x="367" y="252" width="75" height="160" rx="7" fill="#574622" stroke="#8499b1" stroke-width="2"/><rect x="500" y="145" width="440" height="340" rx="7" fill="#233248" stroke="#8499b1" stroke-width="2"/><text x="520" y="180" font-size="20" fill="#dbeafe">2 · Crew reunion</text><rect x="547" y="319" width="96" height="133" rx="7" fill="#45545e" stroke="#8499b1" stroke-width="2"/><rect x="575.8" y="289" width="38.400000000000006" height="35" rx="7" fill="#45545e" stroke="#8499b1" stroke-width="2"/><rect x="752" y="349" width="43" height="103" rx="7" fill="#574622" stroke="#8499b1" stroke-width="2"/><rect x="764.9" y="319" width="17.2" height="35" rx="7" fill="#574622" stroke="#8499b1" stroke-width="2"/><rect x="970" y="145" width="440" height="340" rx="7" fill="#233248" stroke="#8499b1" stroke-width="2"/><text x="990" y="180" font-size="20" fill="#dbeafe">3 · Ordinary preparation</text><rect x="1017" y="319" width="96" height="133" rx="7" fill="#45545e" stroke="#8499b1" stroke-width="2"/><rect x="1045.8" y="289" width="38.400000000000006" height="35" rx="7" fill="#45545e" stroke="#8499b1" stroke-width="2"/><rect x="1222" y="349" width="43" height="103" rx="7" fill="#574622" stroke="#8499b1" stroke-width="2"/><rect x="1234.9" y="319" width="17.2" height="35" rx="7" fill="#574622" stroke="#8499b1" stroke-width="2"/><rect x="1294" y="351" width="70" height="55" rx="7" fill="#45545e" stroke="#8499b1" stroke-width="2"/><text x="30" y="555" font-size="18" fill="#dbeafe">After M04 R08 / extraction · four stations / four Capsules</text><text x="30" y="592" font-size="18" fill="#dbeafe">RELAY arrives separately from RAM. No empty fifth station, shared Capsule or auto-launch.</text><text x="30" y="629" font-size="18" fill="#dbeafe">Keep Research Terminal inactive; dialogue and native-language lettering await review.</text><text x="30" y="680" font-size="16" fill="#dbeafe">No final wording, measured duration, animation implementation or scene-state logic is approved by this image.</text></g></svg>
